# xmcd
#
# Track frame offsets: 
#        150
#        11265
#        21655
#        34982
#        49068
#        60504
#        73375
#        84598
#        95264
#        106264
#        118174
#        130929
#        143687
#        156326
#        167828
#        179622
#        189921
#        201325
#
# Disc length: 2883 seconds
#
# Revision: 0
# Processed by: cddbd v1.5.2PL0 Copyright (c) Steve Scherf et al.
# Submitted via: ExactAudioCopy v0.95b4
#
DISCID=020b4112
DTITLE=Ray Charles - Sentimental Blues [CD1]
DYEAR=2005
DGENRE=Soul
TTITLE0=Sentimental Blues
TTITLE1=Sittin' On Top of the World
TTITLE2=Alone in this City
TTITLE3=Kissa Me Baby
TTITLE4=She's On the Ball
TTITLE5=Baby Won't You Please Come Home
TTITLE6=Let's Have a Ball
TTITLE7=Hey Now
TTITLE8=I Wonder Who's Kissing Her Now
TTITLE9=Can't You See Darling
TTITLE10=Lonely Boy
TTITLE11=The Snow is Falling
TTITLE12=Blues Before Sunrise
TTITLE13=What Have I Done
TTITLE14=If I Give You My Love
TTITLE15=I've Had My Fun (Going Down Slow)
TTITLE16=Back Home
TTITLE17=I'm Wondering and Wondering
EXTD=
EXTT0=
EXTT1=
EXTT2=
EXTT3=
EXTT4=
EXTT5=
EXTT6=
EXTT7=
EXTT8=
EXTT9=
EXTT10=
EXTT11=
EXTT12=
EXTT13=
EXTT14=
EXTT15=
EXTT16=
EXTT17=
PLAYORDER=
